<svg viewBox="0 0 40 40" xmlns="http://www.w3.org/2000/svg">
    <path d="M27.232 16.057c-.678 0-1.261.395-1.538.967v-.065c0-.948-.751-1.752-1.7-1.757a1.707 1.707 0 0 0-1.546.968v-.065c0-.92-.707-1.712-1.626-1.755a1.709 1.709 0 0 0-1.792 1.707v-7.3c0-.92-.707-1.712-1.626-1.755a1.709 1.709 0 0 0-1.791 1.707v14.246l-1.113-4.01c-.261-.94-1.272-1.708-2.248-1.708a1.709 1.709 0 0 0-1.19 2.103l1.964 6.909a14.75 14.75 0 0 0 1.317 3.17l.953 1.704a3.023 3.023 0 0 0 2.638 1.546h6.797c1.156 0 2.21-.658 2.717-1.697a14.746 14.746 0 0 0 1.493-6.466v-6.74c0-.944-.765-1.71-1.709-1.71" fill="currentColor" fill-rule="evenodd"/>
</svg>
