<svg viewBox="0 0 40 40" xmlns="http://www.w3.org/2000/svg">
    <g fill="currentColor" fill-rule="evenodd">
        <path
            d="M11.892 22.287c-.08.082-.15.168-.208.26.414.192 1.513.784 3.097 2.272 1.545 1.455 2.086 2.41 2.256 2.787.031-.026.066-.049.096-.076l12.081-12.082-5.241-5.24-12.08 12.079zM27.12 7.06l-1.797 1.797 5.241 5.24 1.798-1.795a1.592 1.592 0 0 0-.003-2.243l-2.997-2.998a1.593 1.593 0 0 0-2.243-.001M13.333 26.221c-1.901-1.784-3.061-2.19-3.061-2.19s-1.045 2.44-1.73 4.588c.602.348 1.633 1.105 2.425 2.494 2.096-.844 4.538-2.121 4.538-2.121s-.272-.984-2.172-2.77M7.45 30.087c-.41 1.278-.665 2.434-.357 2.655.292.209 1.291-.095 2.41-.545-.669-1.176-1.541-1.816-2.052-2.11M26.763 33.484H10.26l2.797-1.304H29z" />
    </g>
</svg>