<svg viewBox="0 0 40 40" xmlns="http://www.w3.org/2000/svg">
    <path d="M20.051 10.332V7.57a.614.614 0 0 1 .982-.492l4.91 3.683a.616.616 0 0 1 0 .983l-4.91 3.683a.617.617 0 0 1-.642.058.614.614 0 0 1-.34-.55v-2.762c-5.246 0-9.514 4.268-9.514 9.515 0 5.246 4.268 9.514 9.514 9.514 5.247 0 9.515-4.268 9.515-9.514v-.614a.921.921 0 0 1 1.841 0v.614c0 6.261-5.094 11.355-11.356 11.355-6.261 0-11.355-5.094-11.355-11.355 0-6.262 5.094-11.356 11.355-11.356" fill="currentColor" stroke="currentColor" fill-rule="evenodd"/>
</svg>
