<svg viewBox="0 0 40 40" xmlns="http://www.w3.org/2000/svg">
    <g fill="currentColor" fill-rule="nonzero" stroke="currentColor" stroke-width=".6">
        <path
            d="M29.134 9.63H10.866a3.044 3.044 0 0 0-3.04 3.039v14.365l.002.013a3.043 3.043 0 0 0 3.038 3.015h18.267a3.043 3.043 0 0 0 3.04-3.03V12.669a3.043 3.043 0 0 0-3.04-3.04zm2.179 16.307-3.617-3.836a2.868 2.868 0 0 0-4.207 0l-2.437 2.584-3.538-3.86a2.802 2.802 0 0 0-2.08-.932c-.791 0-1.53.331-2.081.933l-4.666 5.09V12.668c0-1.201.978-2.18 2.18-2.18h18.267c1.201 0 2.179.979 2.179 2.18v13.268z" />
        <path
            d="M25.22 17.718a2.181 2.181 0 0 1-2.18-2.178c0-1.202.977-2.18 2.18-2.18 1.2 0 2.178.978 2.178 2.18a2.181 2.181 0 0 1-2.179 2.178z" />
    </g>
</svg>