<svg width="140" height="21" viewBox="0 0 140 21" fill="none" xmlns="http://www.w3.org/2000/svg">
<path fill-rule="evenodd" clip-rule="evenodd" d="M5.22601 12.3529C5.22601 13.0196 5.31871 13.5852 5.50322 14.0491C5.68818 14.5135 5.93196 14.8919 6.23369 15.1847C6.5363 15.4775 6.88839 15.6915 7.2895 15.8265C7.69061 15.962 8.10821 16.0288 8.54096 16.0288C8.99243 16.0288 9.4185 15.9504 9.81961 15.7926C10.2212 15.6349 10.5728 15.4009 10.8754 15.0902C11.1771 14.7787 11.4165 14.3936 11.5925 13.9346C11.7686 13.4747 11.8564 12.9474 11.8564 12.3529V0.891409C11.8564 0.729628 11.9125 0.589685 12.0253 0.472918C12.1376 0.355704 12.2887 0.296875 12.4776 0.296875H16.421C16.6278 0.296875 16.79 0.357933 16.9068 0.478711C17.024 0.600827 17.0824 0.738096 17.0824 0.890963V12.2749C17.0824 13.8499 16.8506 15.174 16.3871 16.245C15.9232 17.3168 15.2997 18.1783 14.5166 18.8308C13.7331 19.4837 12.8266 19.9521 11.7957 20.2356C10.7649 20.519 9.68278 20.6612 8.54764 20.6612C7.41384 20.6612 6.32862 20.5146 5.29375 20.2218C4.25845 19.9294 3.34882 19.4525 2.56532 18.7907C1.78226 18.1289 1.15876 17.2647 0.695702 16.1982C0.231752 15.1308 0 13.8236 0 12.2749V0.890963C0 0.738096 0.0512529 0.600827 0.155096 0.478711C0.258493 0.357933 0.385956 0.296875 0.538824 0.296875H4.57933C4.71437 0.296875 4.85521 0.35303 5.00362 0.466232C5.15158 0.578989 5.22601 0.720268 5.22601 0.891409V12.3529Z" fill="white"/>
<path fill-rule="evenodd" clip-rule="evenodd" d="M21.0522 0.891024C21.0522 0.729243 21.1017 0.589746 21.2007 0.472533C21.3 0.355765 21.4485 0.296936 21.6463 0.296936H26.0621C26.1878 0.296936 26.3188 0.328133 26.4539 0.39142C26.5884 0.454706 26.7057 0.56256 26.8046 0.715427C27.9478 2.56098 29.0829 4.37979 30.2078 6.17141C31.3327 7.96258 32.4723 9.78139 33.6244 11.6269V0.809911C33.6605 0.64813 33.7322 0.522003 33.8405 0.432422C33.9484 0.341949 34.0745 0.296936 34.2184 0.296936H38.0673C38.2563 0.296936 38.414 0.348635 38.5397 0.452923C38.6659 0.555875 38.7287 0.702057 38.7287 0.891024V19.8234C38.7287 20.0039 38.6752 20.1367 38.5665 20.2218C38.4591 20.3074 38.3098 20.3506 38.1208 20.3506H33.8133C33.6966 20.3506 33.5927 20.3096 33.5031 20.2285C33.4127 20.1478 33.3177 20.0395 33.2192 19.9045C32.0217 17.9244 30.838 15.9661 29.6681 14.03C28.4977 12.0949 27.3091 10.1366 26.1031 8.15645V19.7561C26.1031 19.954 26.0576 20.1024 25.9672 20.2013C25.8776 20.3007 25.7158 20.3506 25.4814 20.3506H21.6463C21.4391 20.3506 21.2885 20.294 21.1935 20.1817C21.0995 20.069 21.0522 19.9321 21.0522 19.7695V0.891024Z" fill="white"/>
<path fill-rule="evenodd" clip-rule="evenodd" d="M47.425 10.3304C47.425 11.0782 47.5507 11.7752 47.8025 12.4237C48.0543 13.0713 48.4073 13.6368 48.8619 14.1182C49.3151 14.5999 49.8531 14.9783 50.473 15.2524C51.0934 15.5269 51.7766 15.6642 52.5231 15.6642C53.2692 15.6642 53.9546 15.5269 54.5799 15.2524C55.2043 14.9783 55.744 14.5999 56.1982 14.1182C56.6519 13.6368 57.0049 13.0713 57.2567 12.4237C57.5085 11.7752 57.6342 11.0782 57.6342 10.3304C57.6342 9.59231 57.5085 8.89661 57.2567 8.24369C57.0049 7.59122 56.6519 7.02209 56.1982 6.53586C55.744 6.04962 55.2043 5.66723 54.5799 5.38824C53.9546 5.1088 53.2692 4.96975 52.5231 4.96975C51.7766 4.96975 51.0934 5.1088 50.473 5.38824C49.8531 5.66723 49.3151 6.04962 48.8619 6.53586C48.4073 7.02209 48.0543 7.59122 47.8025 8.24369C47.5507 8.89661 47.425 9.59231 47.425 10.3304ZM42.1995 10.3437C42.1995 9.38997 42.3207 8.47366 42.564 7.59612C42.8074 6.71814 43.1541 5.89408 43.6047 5.1244C44.0548 4.35516 44.5932 3.655 45.2194 3.02481C45.8451 2.39462 46.5408 1.85669 47.3069 1.41101C48.073 0.965337 48.8944 0.619046 49.7729 0.371249C50.6513 0.123898 51.5676 0 52.5231 0C53.4689 0 54.3829 0.123898 55.2658 0.371249C56.1492 0.619046 56.9732 0.965337 57.7393 1.41101C58.5046 1.85669 59.2029 2.39462 59.8336 3.02481C60.4638 3.655 61.0021 4.35516 61.4478 5.1244C61.8944 5.89408 62.2407 6.71814 62.4885 7.59612C62.7358 8.47366 62.8602 9.38997 62.8602 10.3437C62.8602 11.2984 62.7358 12.2147 62.4885 13.0918C62.2407 13.9698 61.8944 14.7894 61.4478 15.5497C61.0021 16.3104 60.4638 17.0039 59.8336 17.6292C59.2029 18.2554 58.5046 18.7929 57.7393 19.243C56.9732 19.6931 56.1492 20.0394 55.2658 20.2828C54.3829 20.5261 53.4689 20.6469 52.5231 20.6469C51.5676 20.6469 50.6513 20.5261 49.7729 20.2828C48.8944 20.0394 48.073 19.6931 47.3069 19.243C46.5408 18.7929 45.8451 18.2554 45.2194 17.6292C44.5932 17.0039 44.0548 16.3104 43.6047 15.5497C43.1541 14.7894 42.8074 13.9698 42.564 13.0918C42.3207 12.2147 42.1995 11.2984 42.1995 10.3437Z" fill="white"/>
<path fill-rule="evenodd" clip-rule="evenodd" d="M84.8879 17.4664C84.9815 17.4664 85.0612 17.4998 85.1272 17.5653L85.1548 17.5934C85.2114 17.6491 85.2395 17.7249 85.2395 17.818C85.2395 17.9682 85.1784 18.0903 85.0568 18.1839C84.1659 18.9434 83.1809 19.5326 82.1024 19.9493C81.0238 20.3669 79.8847 20.5759 78.6845 20.5759C76.8091 20.5759 75.0781 20.1177 73.4941 19.2036C71.9089 18.29 70.6498 17.0475 69.7166 15.4764C68.7833 13.9054 68.3171 12.1865 68.3171 10.3209C68.3171 8.44544 68.7815 6.72468 69.7099 5.15857C70.6382 3.59246 71.8973 2.35259 73.4865 1.43761C75.0758 0.523531 76.8091 0.0667114 78.6845 0.0667114C79.8847 0.0667114 81.0216 0.270386 82.0953 0.678181C83.1693 1.08598 84.161 1.66536 85.0706 2.41543C85.2208 2.55626 85.2957 2.68239 85.2957 2.79515C85.2957 2.82367 85.2881 2.85175 85.2743 2.87983C85.2605 2.90746 85.2533 2.92662 85.2533 2.93554L85.2252 2.99214L85.2114 3.0064C85.1272 3.09019 85.0238 3.13297 84.9017 3.13297C84.7987 3.13297 84.6953 3.09553 84.5924 3.02066C82.7446 1.59538 80.7756 0.881855 78.6845 0.881855C76.9495 0.881855 75.3481 1.29945 73.8805 2.13421C72.4129 2.96941 71.2528 4.10811 70.3989 5.55255C69.5459 6.99699 69.1194 8.58628 69.1194 10.3209C69.1194 12.0559 69.5481 13.6434 70.406 15.0825C71.2644 16.522 72.4245 17.6612 73.8877 18.5008C75.3508 19.34 76.9495 19.7599 78.6845 19.7599C80.7756 19.7599 82.7401 19.0374 84.5781 17.5934C84.6811 17.5092 84.7849 17.4664 84.8879 17.4664Z" fill="white"/>
<path fill-rule="evenodd" clip-rule="evenodd" d="M104.208 7.80992C103.425 6.55756 102.403 5.56192 101.141 4.82121C99.8797 4.08005 98.5694 3.70969 97.21 3.70969C95.8218 3.70969 94.5061 4.07782 93.2636 4.81363C92.0215 5.55034 91.0227 6.5442 90.2677 7.7961C89.5128 9.04756 89.1353 10.4055 89.1353 11.8678C89.1353 13.3127 89.5128 14.6528 90.2677 15.8914C91.0227 17.129 92.0215 18.1162 93.2636 18.852C94.5061 19.5887 95.8218 19.9569 97.21 19.9569C98.6634 19.9569 100.018 19.591 101.275 18.8591C102.531 18.1278 103.53 17.1428 104.271 15.9052C105.012 14.6676 105.382 13.3221 105.382 11.8678C105.382 10.4145 104.991 9.06227 104.208 7.80992ZM105.776 20.3508H105.762C105.509 20.3508 105.382 20.1957 105.382 19.8864V15.4136C104.914 16.4445 104.262 17.3639 103.427 18.1701C102.592 18.9768 101.641 19.6048 100.572 20.0549C99.5022 20.505 98.3862 20.7301 97.2239 20.7301C95.7045 20.7301 94.2628 20.329 92.8981 19.5272C91.5339 18.7254 90.4366 17.6447 89.6068 16.2854C88.7769 14.9256 88.3616 13.4531 88.3616 11.8678C88.3616 10.2839 88.7769 8.80378 89.6068 7.42976C90.4366 6.05662 91.5339 4.96382 92.8981 4.15314C94.2628 3.34156 95.7045 2.93555 97.2239 2.93555C98.3773 2.93555 99.4883 3.16329 100.558 3.61832C101.627 4.07291 102.581 4.708 103.42 5.52404C104.259 6.34007 104.914 7.26797 105.382 8.30908V3.55459C105.382 3.41465 105.413 3.30145 105.474 3.21721C105.535 3.13298 105.631 3.0902 105.762 3.0902H105.776C106.03 3.0902 106.156 3.24574 106.156 3.55459V19.8864C106.156 20.1957 106.03 20.3508 105.776 20.3508Z" fill="white"/>
<path fill-rule="evenodd" clip-rule="evenodd" d="M110.488 3.10461H110.502C110.746 3.10461 110.868 3.24991 110.868 3.54093V7.12774C111.206 6.29299 111.722 5.59016 112.416 5.01791C113.109 4.44566 113.869 4.02182 114.695 3.74505C115.52 3.46829 116.316 3.32968 117.086 3.32968C117.733 3.32968 118.417 3.45893 119.139 3.71653C119.862 3.97458 120.473 4.27719 120.975 4.62393C121.476 4.97066 121.728 5.25634 121.728 5.48186C121.728 5.55718 121.709 5.61333 121.671 5.65032L121.657 5.66458C121.573 5.76798 121.47 5.81968 121.348 5.81968C121.245 5.81968 121.146 5.77734 121.052 5.69311C119.777 4.63329 118.469 4.10338 117.128 4.10338C116.162 4.10338 115.201 4.33067 114.244 4.78526C113.288 5.24075 112.488 5.9721 111.846 6.97978C111.203 7.98835 110.882 9.26566 110.882 10.8135V19.9004C110.882 20.2003 110.756 20.3505 110.502 20.3505H110.488C110.236 20.3505 110.108 20.2003 110.108 19.9004V3.54093C110.108 3.24991 110.236 3.10461 110.488 3.10461Z" fill="white"/>
<mask id="mask0_43_1258" style="mask-type:alpha" maskUnits="userSpaceOnUse" x="122" y="2" width="18" height="19">
<path d="M122.248 2.93591H140V20.73H122.248V2.93591Z" fill="white"/>
</mask>
<g mask="url(#mask0_43_1258)">
<path fill-rule="evenodd" clip-rule="evenodd" d="M127.298 4.69411C126.125 5.35104 125.165 6.2366 124.414 7.35302C123.664 8.469 123.214 9.68792 123.064 11.0102H139.226C139.151 9.90363 138.752 8.7832 138.031 7.64806C137.309 6.51381 136.338 5.57343 135.119 4.82781C133.9 4.08264 132.55 3.70961 131.068 3.70961C129.726 3.70961 128.47 4.03763 127.298 4.69411ZM123.021 11.882C123.021 13.3264 123.385 14.6701 124.112 15.9127C124.838 17.1552 125.821 18.1442 127.059 18.8805C128.297 19.6167 129.642 19.9848 131.096 19.9848C131.987 19.9848 132.774 19.8815 133.459 19.6751C134.143 19.4688 134.713 19.225 135.168 18.9437C135.623 18.6625 136.117 18.3109 136.652 17.8884C136.755 17.8046 136.868 17.7623 136.989 17.7623C137.075 17.7623 137.144 17.7908 137.201 17.8465L137.229 17.8746C137.285 17.9307 137.313 18.0011 137.313 18.0858C137.313 18.2173 137.257 18.3341 137.144 18.437C136.319 19.1407 135.412 19.6987 134.422 20.1114C133.433 20.5241 132.324 20.73 131.096 20.73C129.501 20.73 128.027 20.332 126.672 19.5347C125.317 18.7374 124.24 17.6615 123.444 16.3067C122.646 14.9514 122.248 13.4766 122.248 11.882C122.248 10.2882 122.646 8.80414 123.444 7.43012C124.24 6.05699 125.315 4.96374 126.665 4.15306C128.015 3.34148 129.482 2.93591 131.068 2.93591C132.709 2.93591 134.214 3.35574 135.583 4.19495C136.952 5.03461 138.031 6.10602 138.819 7.40918C139.606 8.71278 140 10.0204 140 11.3334V11.39C140 11.6431 139.869 11.7697 139.606 11.7697H123.021V11.882Z" fill="white"/>
</g>
</svg>
