<svg width="16" height="16" viewBox="0 0 16 16" fill="none" xmlns="http://www.w3.org/2000/svg">
<g clip-path="url(#clip0_12_305)">
<path fill-rule="evenodd" clip-rule="evenodd" d="M5.05263 11.9474L7.57895 9.47158C7.25053 9.43789 7.00632 9.42105 6.73684 9.42105C4.48842 9.42105 0 10.5495 0 12.7895V14.4737H7.57895L5.05263 11.9474ZM6.73684 7.73684C8.59789 7.73684 10.1053 6.22947 10.1053 4.36842C10.1053 2.50737 8.59789 1 6.73684 1C4.87579 1 3.36842 2.50737 3.36842 4.36842C3.36842 6.22947 4.87579 7.73684 6.73684 7.73684Z" fill="white"/>
<path fill-rule="evenodd" clip-rule="evenodd" d="M10.501 14.8947L7.57886 11.9474L8.7578 10.76L10.501 12.5116L14.821 8.1579L15.9999 9.34527L10.501 14.8947Z" fill="white"/>
</g>
<defs>
<clipPath id="clip0_12_305">
<rect width="16" height="16" fill="white"/>
</clipPath>
</defs>
</svg>
