<svg width="20" height="20" viewBox="0 0 20 20" fill="none" xmlns="http://www.w3.org/2000/svg">
<path d="M7.5 8.33331H5.83333V9.99998H7.5V8.33331ZM10.8333 8.33331H9.16667V9.99998H10.8333V8.33331ZM14.1667 8.33331H12.5V9.99998H14.1667V8.33331ZM15.8333 2.49998H15V0.833313H13.3333V2.49998H6.66667V0.833313H5V2.49998H4.16667C3.24167 2.49998 2.5 3.24998 2.5 4.16665V15.8333C2.5 16.2753 2.67559 16.6993 2.98816 17.0118C3.30072 17.3244 3.72464 17.5 4.16667 17.5H15.8333C16.2754 17.5 16.6993 17.3244 17.0118 17.0118C17.3244 16.6993 17.5 16.2753 17.5 15.8333V4.16665C17.5 3.72462 17.3244 3.3007 17.0118 2.98813C16.6993 2.67557 16.2754 2.49998 15.8333 2.49998ZM15.8333 15.8333H4.16667V6.66665H15.8333V15.8333Z" fill="black"/>
</svg>
