<svg width="20" height="20" viewBox="0 0 20 20" fill="none" xmlns="http://www.w3.org/2000/svg">
<rect width="20" height="20" rx="2" fill="black" fill-opacity="0.5"/>
<path fill-rule="evenodd" clip-rule="evenodd" d="M9.55556 4C9.06464 4 8.66667 4.39797 8.66667 4.88889H6.44444C6.19898 4.88889 6 5.08787 6 5.33333C6 5.57879 6.19898 5.77778 6.44444 5.77778H13.5556C13.801 5.77778 14 5.57879 14 5.33333C14 5.08787 13.801 4.88889 13.5556 4.88889H11.3333C11.3333 4.39797 10.9354 4 10.4444 4H9.55556ZM14 6.66667H6V13.7778C6 14.2687 6.59695 14.6667 7.33333 14.6667H12.6667C13.403 14.6667 14 14.2687 14 13.7778V6.66667ZM7.77778 8.88889C7.77778 8.64343 7.97676 8.44444 8.22222 8.44444C8.46768 8.44444 8.66667 8.64343 8.66667 8.88889V12.4444C8.66667 12.6899 8.46768 12.8889 8.22222 12.8889C7.97676 12.8889 7.77778 12.6899 7.77778 12.4444V8.88889ZM9.55556 8.88889C9.55556 8.64343 9.75454 8.44444 10 8.44444C10.2455 8.44444 10.4444 8.64343 10.4444 8.88889V12.4444C10.4444 12.6899 10.2455 12.8889 10 12.8889C9.75454 12.8889 9.55556 12.6899 9.55556 12.4444V8.88889ZM11.7778 8.44444C11.5323 8.44444 11.3333 8.64343 11.3333 8.88889V12.4444C11.3333 12.6899 11.5323 12.8889 11.7778 12.8889C12.0232 12.8889 12.2222 12.6899 12.2222 12.4444V8.88889C12.2222 8.64343 12.0232 8.44444 11.7778 8.44444Z" fill="white"/>
</svg>
