<svg width="20" height="20" viewBox="0 0 20 20" fill="none" xmlns="http://www.w3.org/2000/svg">
<path d="M7.79891 0C8.72176 0 9.51086 0.806641 9.51086 1.75V5.65043C10.1768 5.01215 11.4548 4.93379 12.2821 5.89648C13.1739 5.33836 14.3531 5.81262 14.7163 6.53906C16.6359 6.18852 17.5 7.39633 17.5 9.375C17.5 9.48227 17.4921 9.89359 17.4924 10C17.4989 12.4207 16.2789 13.0037 15.9957 14.8332C15.9251 15.2892 15.5312 15.625 15.0698 15.625H8.36957L8.36953 15.6249C7.65211 15.6245 6.96762 15.2106 6.65684 14.513C6.14926 13.3847 4.74129 10.786 3.63641 10.3125C2.92566 10.0079 2.50031 9.47719 2.5 8.75C2.49945 7.4132 3.87102 6.49406 5.11359 7.0266C5.44012 7.16656 5.76477 7.35129 6.08695 7.57945V1.75C6.08695 0.833984 6.88941 0 7.79891 0ZM7.8125 16.25H15.3125C15.8303 16.25 16.25 16.6697 16.25 17.1875V19.0625C16.25 19.5803 15.8303 20 15.3125 20H7.8125C7.29473 20 6.875 19.5803 6.875 19.0625V17.1875C6.875 16.6697 7.29473 16.25 7.8125 16.25ZM14.375 17.3438C13.9435 17.3438 13.5938 17.6935 13.5938 18.125C13.5938 18.5565 13.9435 18.9062 14.375 18.9062C14.8065 18.9062 15.1562 18.5565 15.1562 18.125C15.1562 17.6935 14.8065 17.3438 14.375 17.3438Z" fill="black"/>
</svg>
