<svg width="16" height="16" viewBox="0 0 16 16" fill="none" xmlns="http://www.w3.org/2000/svg">
<g clip-path="url(#clip0_1_378)">
<path d="M2.66665 4.00004H1.33331V13.3334C1.33331 14.0667 1.93331 14.6667 2.66665 14.6667H12V13.3334H2.66665V4.00004ZM13.3333 1.33337H5.33331C4.59998 1.33337 3.99998 1.93337 3.99998 2.66671V10.6667C3.99998 11.4 4.59998 12 5.33331 12H13.3333C14.0666 12 14.6666 11.4 14.6666 10.6667V2.66671C14.6666 1.93337 14.0666 1.33337 13.3333 1.33337ZM12.6666 7.33337H9.99998V10H8.66665V7.33337H5.99998V6.00004H8.66665V3.33337H9.99998V6.00004H12.6666V7.33337Z" fill="black"/>
</g>
<defs>
<clipPath id="clip0_1_378">
<rect width="16" height="16" fill="white"/>
</clipPath>
</defs>
</svg>
