<svg width="20" height="20" viewBox="0 0 20 20" fill="none" xmlns="http://www.w3.org/2000/svg">
<g clip-path="url(#clip0_2_160)">
<path d="M5.00004 8.33331C4.08337 8.33331 3.33337 9.08331 3.33337 9.99998C3.33337 10.9166 4.08337 11.6666 5.00004 11.6666C5.91671 11.6666 6.66671 10.9166 6.66671 9.99998C6.66671 9.08331 5.91671 8.33331 5.00004 8.33331ZM15 8.33331C14.0834 8.33331 13.3334 9.08331 13.3334 9.99998C13.3334 10.9166 14.0834 11.6666 15 11.6666C15.9167 11.6666 16.6667 10.9166 16.6667 9.99998C16.6667 9.08331 15.9167 8.33331 15 8.33331ZM10 8.33331C9.08337 8.33331 8.33337 9.08331 8.33337 9.99998C8.33337 10.9166 9.08337 11.6666 10 11.6666C10.9167 11.6666 11.6667 10.9166 11.6667 9.99998C11.6667 9.08331 10.9167 8.33331 10 8.33331Z" fill="black"/>
</g>
<defs>
<clipPath id="clip0_2_160">
<rect width="20" height="20" fill="white"/>
</clipPath>
</defs>
</svg>
