<svg width="20" height="20" viewBox="0 0 20 20" fill="none" xmlns="http://www.w3.org/2000/svg">
<path d="M15.5167 1.25C15.0917 1.25 14.6667 1.40833 14.3417 1.74167L8.95835 7.125L12.4584 10.6167L17.8417 5.24167C18.5 4.58333 18.5 3.53333 17.8417 2.88333L16.7 1.74167C16.375 1.40833 15.95 1.25 15.5167 1.25ZM8.16668 7.91667L2.69168 13.3917L3.27502 13.975C2.83335 14.3667 2.40835 14.8167 1.98335 15.2417C1.33335 15.9 1.33335 16.95 1.98335 17.6C2.63335 18.25 3.68335 18.25 4.34168 17.6C4.76668 17.1917 5.20835 16.7333 5.60835 16.3167L6.19168 16.8917L11.6667 11.4167" fill="black"/>
</svg>
